# xmcd
#
# Track frame offsets:
#	150
#	19930
#	37262
#	54467
#	75110
#	91565
#	107755
#	122332
#	144800
#	163300
#	181620
#	198302
#
# Disc length: 2860 seconds
#
# Revision: 1
# Processed by: cddbd v1.4PL0 Copyright (c) Steve Scherf et al.
# Submitted via: audiograbber 1.81.03
#
DISCID=880b2a0c
DTITLE=Blues Traveler - Truth Be Told
DYEAR=2003
DGENRE=Blues
TTITLE0=Unable To Get Free
TTITLE1=Eventually (I'll Come Around)
TTITLE2=Sweet And Broken
TTITLE3=My Blessed Pain
TTITLE4=Let Her and Let Go
TTITLE5=Thinnest of Air
TTITLE6=Can't See Why
TTITLE7=Stumble And Fall
TTITLE8=This Ache
TTITLE9=Mount Normal
TTITLE10=The One
TTITLE11=Partner In Crime
EXTD=
EXTT0=
EXTT1=
EXTT2=
EXTT3=
EXTT4=
EXTT5=
EXTT6=
EXTT7=
EXTT8=
EXTT9=
EXTT10=
EXTT11=
PLAYORDER=
